<svg width="130.35" height="22.41" viewBox="0 0 130.35 22.41" xmlns="http://www.w3.org/2000/svg"><g id="svgGroup" stroke-linecap="round" fill-rule="evenodd" font-size="9pt" stroke="#ffffff" stroke-width="0.55mm" fill="#ffffff" style="stroke:#ffffff;stroke-width:0.55mm;fill:#ffffff"><path d="M 33.06 12.75 L 33.06 22.2 L 32.49 22.2 L 32.49 12.69 Q 32.49 10.469 31.714 8.987 A 4.999 4.999 0 0 0 30.9 7.845 A 5.254 5.254 0 0 0 28.029 6.315 A 7.697 7.697 0 0 0 26.55 6.18 A 7.18 7.18 0 0 0 24.474 6.466 A 5.622 5.622 0 0 0 21.93 8.055 A 5.949 5.949 0 0 0 20.66 10.269 Q 20.19 11.689 20.19 13.59 L 20.19 22.2 L 19.59 22.2 L 19.59 0 L 20.19 0 L 20.19 10.26 A 6.504 6.504 0 0 1 20.937 8.447 A 5.359 5.359 0 0 1 22.47 6.825 A 6.621 6.621 0 0 1 25.406 5.714 A 8.585 8.585 0 0 1 26.55 5.64 A 7.507 7.507 0 0 1 28.773 5.955 A 6.056 6.056 0 0 1 31.23 7.41 A 5.546 5.546 0 0 1 32.627 9.703 Q 32.922 10.594 33.016 11.681 A 12.384 12.384 0 0 1 33.06 12.75 Z M 15.24 11.49 L 14.64 11.49 Q 14.25 9.09 12.39 7.71 Q 10.53 6.33 7.8 6.33 A 7.727 7.727 0 0 0 4.839 6.894 A 7.429 7.429 0 0 0 4.215 7.185 Q 2.58 8.04 1.59 9.78 A 7.184 7.184 0 0 0 0.832 11.798 Q 0.6 12.85 0.6 14.1 A 11.158 11.158 0 0 0 0.751 15.987 Q 0.935 17.06 1.344 17.941 A 6.454 6.454 0 0 0 1.59 18.42 A 6.828 6.828 0 0 0 2.972 20.155 A 6.111 6.111 0 0 0 4.215 21.015 Q 5.85 21.87 7.8 21.87 A 8.936 8.936 0 0 0 9.986 21.615 A 6.758 6.758 0 0 0 12.39 20.49 A 5.636 5.636 0 0 0 14.634 16.747 A 7.308 7.308 0 0 0 14.64 16.71 L 15.24 16.71 Q 14.82 19.26 12.855 20.835 Q 10.89 22.41 7.8 22.41 Q 5.55 22.41 3.78 21.42 A 6.923 6.923 0 0 1 1.069 18.657 A 8.267 8.267 0 0 1 1.005 18.54 A 8.444 8.444 0 0 1 0.142 15.92 A 11.26 11.26 0 0 1 0 14.1 A 10.903 10.903 0 0 1 0.221 11.855 A 8.273 8.273 0 0 1 1.005 9.66 Q 2.01 7.77 3.78 6.78 Q 5.55 5.79 7.8 5.79 A 9.917 9.917 0 0 1 10.032 6.028 A 6.939 6.939 0 0 1 12.855 7.365 Q 14.82 8.94 15.24 11.49 Z M 100.2 16.71 L 100.8 16.71 Q 100.38 19.26 98.415 20.835 Q 96.45 22.41 93.36 22.41 Q 91.11 22.41 89.34 21.42 A 6.923 6.923 0 0 1 86.629 18.657 A 8.267 8.267 0 0 1 86.565 18.54 A 8.444 8.444 0 0 1 85.702 15.92 A 11.26 11.26 0 0 1 85.56 14.1 A 10.903 10.903 0 0 1 85.781 11.855 A 8.273 8.273 0 0 1 86.565 9.66 Q 87.57 7.77 89.34 6.78 Q 91.11 5.79 93.36 5.79 A 9.329 9.329 0 0 1 95.302 5.982 A 6.847 6.847 0 0 1 97.41 6.795 Q 99.09 7.8 99.945 9.39 Q 100.8 10.98 100.8 12.75 Q 100.8 13.83 100.77 14.37 L 86.16 14.37 A 10.436 10.436 0 0 0 86.342 16.243 Q 86.595 17.536 87.195 18.54 A 6.768 6.768 0 0 0 88.67 20.288 A 6.166 6.166 0 0 0 89.82 21.045 A 7.661 7.661 0 0 0 93.24 21.869 A 8.873 8.873 0 0 0 93.36 21.87 A 8.936 8.936 0 0 0 95.546 21.615 A 6.758 6.758 0 0 0 97.95 20.49 A 5.636 5.636 0 0 0 100.194 16.747 A 7.308 7.308 0 0 0 100.2 16.71 Z M 52.47 10.95 L 52.47 6 L 53.04 6 L 53.04 22.2 L 52.47 22.2 L 52.47 17.25 Q 51.81 19.5 49.875 20.955 A 7.181 7.181 0 0 1 46.572 22.307 A 9.53 9.53 0 0 1 45.15 22.41 A 9.057 9.057 0 0 1 42.776 22.109 A 7.639 7.639 0 0 1 41.04 21.405 Q 39.24 20.4 38.25 18.525 A 8.357 8.357 0 0 1 37.424 16.06 A 11.26 11.26 0 0 1 37.26 14.1 A 11.074 11.074 0 0 1 37.463 11.928 A 8.266 8.266 0 0 1 38.25 9.675 Q 39.24 7.8 41.04 6.795 A 7.937 7.937 0 0 1 44.095 5.845 A 9.862 9.862 0 0 1 45.15 5.79 Q 47.94 5.79 49.875 7.245 Q 51.81 8.7 52.47 10.95 Z M 82.17 22.2 L 79.98 16.38 L 69.54 16.38 L 67.32 22.2 L 66.63 22.2 L 74.46 1.71 L 75.06 1.71 L 82.86 22.2 L 82.17 22.2 Z M 64.53 6.6 L 59.43 6.6 L 59.43 17.94 A 10.555 10.555 0 0 0 59.459 18.752 Q 59.521 19.548 59.713 20.071 A 2.678 2.678 0 0 0 59.76 20.19 A 2.188 2.188 0 0 0 60.155 20.819 A 1.913 1.913 0 0 0 60.81 21.285 Q 61.515 21.593 62.767 21.6 A 10.44 10.44 0 0 0 62.82 21.6 L 64.53 21.6 L 64.53 22.2 L 62.76 22.2 A 7.245 7.245 0 0 1 61.686 22.126 Q 60.406 21.934 59.745 21.24 Q 58.83 20.28 58.83 17.94 L 58.83 6.6 L 56.19 6.6 L 56.19 6 L 58.83 6 L 58.83 1.86 L 59.43 1.86 L 59.43 6 L 64.53 6 L 64.53 6.6 Z M 119.885 22.037 A 8.652 8.652 0 0 0 122.46 22.41 A 9.63 9.63 0 0 0 123.152 22.385 A 7.974 7.974 0 0 0 126.51 21.405 Q 128.31 20.4 129.33 18.525 A 8.092 8.092 0 0 0 130.133 16.307 A 10.73 10.73 0 0 0 130.35 14.1 A 11.052 11.052 0 0 0 130.205 12.273 A 8.245 8.245 0 0 0 129.33 9.675 Q 128.31 7.8 126.51 6.795 A 7.683 7.683 0 0 0 125.035 6.163 A 8.652 8.652 0 0 0 122.46 5.79 A 9.63 9.63 0 0 0 121.768 5.815 A 7.974 7.974 0 0 0 118.41 6.795 Q 116.61 7.8 115.575 9.675 A 8.017 8.017 0 0 0 114.76 11.893 A 10.58 10.58 0 0 0 114.54 14.1 A 10.903 10.903 0 0 0 114.686 15.918 A 8.167 8.167 0 0 0 115.575 18.525 Q 116.61 20.4 118.41 21.405 A 7.683 7.683 0 0 0 119.885 22.037 Z M 112.14 5.64 L 112.14 6.3 L 111.87 6.3 A 7.271 7.271 0 0 0 109.584 6.647 A 6.217 6.217 0 0 0 107.535 7.785 Q 106.043 9.027 105.798 11.538 A 10.661 10.661 0 0 0 105.75 12.57 L 105.75 22.2 L 105.15 22.2 L 105.15 6 L 105.75 6 L 105.75 9.93 Q 106.71 5.64 112.14 5.64 Z M 52.47 14.1 A 9.57 9.57 0 0 0 52.234 11.929 A 7.607 7.607 0 0 0 51.525 10.035 Q 50.58 8.28 48.915 7.305 A 7.165 7.165 0 0 0 45.7 6.347 A 8.693 8.693 0 0 0 45.15 6.33 A 8.918 8.918 0 0 0 43.197 6.534 A 6.853 6.853 0 0 0 41.295 7.26 Q 39.66 8.19 38.76 9.945 A 7.965 7.965 0 0 0 38.014 12.223 A 10.903 10.903 0 0 0 37.86 14.1 A 10.809 10.809 0 0 0 38.032 16.077 A 7.917 7.917 0 0 0 38.76 18.255 Q 39.66 20.01 41.295 20.94 A 7.016 7.016 0 0 0 43.662 21.755 A 9.286 9.286 0 0 0 45.15 21.87 A 7.763 7.763 0 0 0 47.491 21.526 A 6.912 6.912 0 0 0 48.915 20.895 Q 50.58 19.92 51.525 18.165 A 7.851 7.851 0 0 0 52.373 15.523 A 10.119 10.119 0 0 0 52.47 14.1 Z M 122.46 21.87 Q 124.41 21.87 126.06 21.015 A 6.463 6.463 0 0 0 128.465 18.841 A 7.888 7.888 0 0 0 128.73 18.42 A 7.089 7.089 0 0 0 129.526 16.334 Q 129.72 15.445 129.746 14.418 A 12.662 12.662 0 0 0 129.75 14.1 A 10.798 10.798 0 0 0 129.588 12.177 Q 129.39 11.08 128.947 10.183 A 6.36 6.36 0 0 0 128.73 9.78 A 6.992 6.992 0 0 0 127.302 8.03 A 6.26 6.26 0 0 0 126.06 7.185 Q 124.41 6.33 122.46 6.33 Q 120.51 6.33 118.845 7.185 A 6.415 6.415 0 0 0 116.425 9.37 A 7.836 7.836 0 0 0 116.16 9.795 Q 115.14 11.55 115.14 14.1 A 10.609 10.609 0 0 0 115.309 16.041 Q 115.555 17.363 116.16 18.405 A 6.946 6.946 0 0 0 117.577 20.153 A 6.221 6.221 0 0 0 118.845 21.015 Q 120.51 21.87 122.46 21.87 Z M 69.75 15.84 L 79.77 15.84 L 74.76 2.67 L 69.75 15.84 Z M 86.16 13.83 L 100.26 13.83 A 11.097 11.097 0 0 0 100.281 13.166 Q 100.281 12.274 100.127 11.496 A 6.144 6.144 0 0 0 99.465 9.66 A 6.199 6.199 0 0 0 97.806 7.729 A 5.98 5.98 0 0 0 96.885 7.155 Q 95.25 6.33 93.36 6.33 A 7.774 7.774 0 0 0 90.334 6.917 A 7.501 7.501 0 0 0 89.82 7.155 A 6.353 6.353 0 0 0 87.389 9.353 A 7.7 7.7 0 0 0 87.195 9.66 Q 86.19 11.34 86.16 13.83 Z"/></g></svg>